<?xml version="1.0" encoding="utf-8"?>
<!-- Generator: Adobe Illustrator 17.0.0, SVG Export Plug-In . SVG Version: 6.00 Build 0)  -->
<!DOCTYPE svg PUBLIC "-//W3C//DTD SVG 1.1//EN" "http://www.w3.org/Graphics/SVG/1.1/DTD/svg11.dtd">
<svg version="1.1" id="Layer_1" xmlns="http://www.w3.org/2000/svg" xmlns:xlink="http://www.w3.org/1999/xlink" x="0px" y="0px"
	 width="960px" height="250px" viewBox="0 0 960 250" enable-background="new 0 0 960 250" xml:space="preserve">
<g>
	<path d="M111.825,169.716L68.777,61.571L25.879,169.716 M39.378,135.667h58.798H39.378z"/>
	<path d="M176.926,169.716L148.427,61.571L176.926,169.716l34.349-108.145l34.349,108.145l28.499-108.145l-28.499,108.145"/>
	<path d="M398.771,62.171h-69.897v107.545h69.897h-69.897 M392.771,114.369h-63.897H392.771z"/>
	<path d="M435.374,137.018c0,23.999,18.299,33.599,39.749,33.599c21.75,0,35.399-13.649,35.848-26.999
		c0.45-13.199-6.3-23.699-19.648-26.549l-36.749-7.95c-10.35-2.25-16.499-8.25-16.499-22.349s11.849-26.249,33.448-26.249
		c21.6,0,37.349,10.2,36.749,28.049c0.6-17.85-15.149-28.049-36.749-28.049c-21.599,0-33.448,12.15-33.448,26.249
		c0,14.1,5.85,19.949,16.499,22.349l36.749,7.95c13.649,2.85,20.099,13.35,19.648,26.549c-0.449,13.35-14.099,26.999-35.848,26.999
		C453.673,170.616,435.374,161.017,435.374,137.018z"/>
	<path d="M547.423,114.818c0-41.398,21.449-56.098,47.698-56.098s47.698,14.7,47.698,56.098s-21.449,55.798-47.698,55.798
		S547.423,156.217,547.423,114.818z M547.423,114.818c0-41.398,21.449-56.098,47.698-56.098s47.698,14.7,47.698,56.098
		s-21.449,55.798-47.698,55.798S547.423,156.217,547.423,114.818z"/>
	<path d="M789.217,61.571v108.145V61.571l-46.648,108.145L696.071,61.571v108.145V61.571"/>
	<path d="M929.917,62.171H860.02v107.545h69.897H860.02 M923.917,114.369H860.02H923.917z"/>
</g>
</svg>
