<?xml version="1.0" encoding="utf-8"?>
<!-- Generator: Adobe Illustrator 17.0.0, SVG Export Plug-In . SVG Version: 6.00 Build 0)  -->
<!DOCTYPE svg PUBLIC "-//W3C//DTD SVG 1.1//EN" "http://www.w3.org/Graphics/SVG/1.1/DTD/svg11.dtd">
<svg version="1.1" id="Layer_1" xmlns="http://www.w3.org/2000/svg" xmlns:xlink="http://www.w3.org/1999/xlink" x="0px" y="0px"
	 width="960px" height="250px" viewBox="0 0 960 250" enable-background="new 0 0 960 250" xml:space="preserve">
<g>
	<path d="M98.893,63.952H31.321V167.92h67.572H31.321 M31.321,114.414h61.772H31.321z"/>
	<path d="M224.462,63.373V167.92L149.93,63.373V167.92"/>
	<path d="M364.095,87.878c-6.67-18.706-21.316-25.811-41.761-25.811c-28.711,0-45.821,13.775-45.821,53.506
		c0,39.586,20.155,53.072,45.821,53.072c25.666,0,41.761-15.806,41.761-51.477h-37.266 M322.334,168.646 M364.095,167.92v-50.751
		V167.92z"/>
	<path d="M482.705,167.92L441.089,63.373L399.618,167.92 M412.668,135.004h56.842H412.668z"/>
	<path d="M605.663,117.169h-37.267H605.663c0,35.671-16.096,51.477-41.762,51.477c-25.665,0-45.821-13.485-45.821-53.072
		 M605.663,87.878c-6.67-18.706-21.315-25.811-41.762-25.811c-28.711,0-45.821,13.775-45.821,53.506 M605.663,117.169v50.751
		V117.169z"/>
	<path d="M656.846,167.92V63.373V167.92z"/>
	<path d="M795.322,63.373V167.92L720.79,63.373V167.92"/>
	<path d="M934.955,117.169h-37.267H934.955c0,35.671-16.096,51.477-41.762,51.477c-25.665,0-45.821-13.485-45.821-53.072
		 M934.955,87.878c-6.67-18.706-21.315-25.811-41.762-25.811c-28.711,0-45.821,13.775-45.821,53.506 M934.955,167.92"/>
</g>
</svg>
