<?xml version="1.0" encoding="utf-8"?>
<!-- Generator: Adobe Illustrator 17.0.0, SVG Export Plug-In . SVG Version: 6.00 Build 0)  -->
<!DOCTYPE svg PUBLIC "-//W3C//DTD SVG 1.1//EN" "http://www.w3.org/Graphics/SVG/1.1/DTD/svg11.dtd">
<svg version="1.1" id="Layer_1" xmlns="http://www.w3.org/2000/svg" xmlns:xlink="http://www.w3.org/1999/xlink" x="0px" y="0px"
	 width="960px" height="250px" viewBox="0 0 960 250" enable-background="new 0 0 960 250" xml:space="preserve">
<g>
	<path d="M45.726,77.486v79.311V77.486z"/>
	<path d="M150.775,156.797c0-26.437,0-52.874,0-79.311C150.775,103.923,150.775,130.36,150.775,156.797
		c-18.847-26.437-37.693-52.874-56.54-79.311c0,26.437,0,52.874,0,79.311"/>
	<path d="M247.464,77.486h-57.201h28.491v79.311"/>
	<path d="M285.853,77.926h51.26H285.853v78.871h51.26h-51.26 M332.713,116.207h-46.86H332.713z"/>
	<path d="M375.832,116.316h31.13c17.6,0,23.32-10.56,22.88-21.23c-0.55-10.67-5.28-17.6-25.08-17.6h-28.93v79.311V77.486
		 M429.842,95.086 M432.262,156.797c-2.2-1.54-2.75-4.62-2.75-5.94l-1.98-20.02c-0.66-8.58-6.82-14.521-19.03-14.521
		c12.21,0,18.37,5.94,19.03,14.521l1.98,20.02C429.512,152.177,430.062,155.257,432.262,156.797z"/>
	<path d="M522.35,156.797c-10.523-26.437-21.047-52.874-31.57-79.311c-10.487,26.437-20.973,52.874-31.46,79.311 M512.34,131.826
		h-43.12H512.34z"/>
	<path d="M643.568,77.486h57.2h-28.71v79.311"/>
	<path d="M739.156,156.797V77.486V156.797z"/>
	<path d="M775.787,77.486l28.82,79.311l28.82-79.311"/>
	<path d="M871.816,156.797V77.926h51.261h-51.261V156.797h51.261H871.816z M871.816,116.207h46.86H871.816z"/>
</g>
<path d="M613.4,131.066c-3.579,19.234-15.208,27.956-33.547,27.956c-22.253,0-34.889-12.636-34.889-41.263
	c0-28.514,12.636-41.262,34.889-41.262c15.879,0,26.837,6.597,31.758,20.911"/>
</svg>
