<?xml version="1.0" encoding="utf-8"?>
<!-- Generator: Adobe Illustrator 17.0.0, SVG Export Plug-In . SVG Version: 6.00 Build 0)  -->
<!DOCTYPE svg PUBLIC "-//W3C//DTD SVG 1.1//EN" "http://www.w3.org/Graphics/SVG/1.1/DTD/svg11.dtd">
<svg version="1.1" id="Layer_1" xmlns="http://www.w3.org/2000/svg" xmlns:xlink="http://www.w3.org/1999/xlink" x="0px" y="0px"
	 width="960px" height="250px" viewBox="0 0 960 250" enable-background="new 0 0 960 250" xml:space="preserve">
<g>
	<g>
		<path d="M364.355,14.999h-33v210h10.5v-57.9h3h19.5c1.997,0,3.398-0.098,4.2-0.3l19.5,58.2h10.5l-20.4-60.6
			c6-2.799,10.898-6.999,14.7-12.601c3.797-5.597,5.7-11.896,5.7-18.9V49.199c0-4.8-0.9-9.248-2.7-13.35
			c-1.8-4.097-4.251-7.697-7.35-10.8c-3.103-3.098-6.703-5.55-10.8-7.35C373.604,15.899,369.155,14.999,364.355,14.999
			L364.355,14.999z M341.855,156.599v-131.1h22.5c6.6,0,12.197,2.302,16.8,6.9c4.599,4.603,6.9,10.2,6.9,16.8v83.699
			c0,6.601-2.302,12.202-6.9,16.801c-4.603,4.603-10.2,6.899-16.8,6.899H341.855L341.855,156.599z"/>
	</g>
	<g>
		<polygon points="430.052,14.999 419.552,14.999 419.552,224.999 430.052,224.999 430.052,14.999 		"/>
	</g>
	<g>
		<path d="M484.051,14.999h-33v175.8c0,4.8,0.9,9.253,2.7,13.351c1.8,4.102,4.247,7.701,7.35,10.8c3.099,3.103,6.699,5.55,10.8,7.35
			c4.097,1.8,8.55,2.7,13.35,2.7c4.8,0,9.248-0.9,13.35-2.7c4.097-1.8,7.697-4.247,10.8-7.35c3.099-3.099,5.551-6.698,7.351-10.8
			c1.8-4.098,2.7-8.551,2.7-13.351v-11.1h-10.5v11.1c0,6.601-2.302,12.202-6.9,16.8c-4.604,4.604-10.2,6.9-16.8,6.9
			c-6.6,0-12.202-2.297-16.8-6.9c-4.603-4.598-6.9-10.199-6.9-16.8v-165.3h22.5c6.6,0,12.197,2.302,16.8,6.9
			c4.599,4.603,6.9,10.2,6.9,16.8v11.4h10.5v-11.4c0-4.8-0.9-9.248-2.7-13.35c-1.8-4.097-4.252-7.697-7.35-10.8
			c-3.104-3.098-6.703-5.55-10.801-7.35C493.299,15.899,488.851,14.999,484.051,14.999L484.051,14.999z"/>
	</g>
	<g>
		<polygon points="607.647,14.999 597.147,14.999 597.147,156.599 550.947,156.599 550.947,14.999 540.447,14.999 540.447,224.999 
			550.947,224.999 550.947,167.099 597.147,167.099 597.147,224.999 607.647,224.999 607.647,14.999 		"/>
	</g>
</g>
</svg>
